<svg width="325" height="286" viewBox="0 0 325 286" fill="none" xmlns="http://www.w3.org/2000/svg">
<g opacity="0.21" clip-path="url(#clip0_118_307)">
<path d="M134.066 241.422C147.401 241.422 158.211 230.609 158.211 217.269C158.211 203.93 147.401 193.116 134.066 193.116C120.731 193.116 109.921 203.93 109.921 217.269C109.921 230.609 120.731 241.422 134.066 241.422Z" fill="#7680AD"/>
<path opacity="0.2" d="M116.241 201.167C111.002 213.433 116.673 227.644 128.935 232.885C138.496 236.937 149.569 234.506 156.429 226.725C151.189 238.991 136.983 244.664 124.722 239.423C112.46 234.182 106.788 219.971 112.028 207.705C113.108 205.328 114.513 203.112 116.241 201.167Z" fill="black"/>
<path d="M134.12 217.269H134.174L135.363 285.73H132.878L134.12 217.269Z" fill="#3F3D56"/>
<path d="M85.2362 196.412C112.115 196.412 133.904 174.616 133.904 147.728C133.904 120.84 112.115 99.0436 85.2362 99.0436C58.3577 99.0436 36.5684 120.84 36.5684 147.728C36.5684 174.616 58.3577 196.412 85.2362 196.412Z" fill="#55BAA6"/>
<path opacity="0.2" d="M49.316 115.2C38.729 139.947 50.2343 168.531 74.9193 179.122C94.1488 187.335 116.457 182.364 130.393 166.748C119.806 191.495 91.232 202.95 66.4929 192.36C41.7539 181.769 30.3026 153.185 40.8896 128.438C42.9422 123.629 45.805 119.144 49.316 115.2Z" fill="black"/>
<path d="M85.3444 147.728H85.5064L87.8831 285.73H82.8057L85.3444 147.728Z" fill="#3F3D56"/>
<path d="M406.034 214.297H183.004V280.435H406.034V214.297Z" fill="#F0F0F0"/>
<path d="M307.51 227.968H281.528V280.435H307.51V227.968Z" fill="#CACACA"/>
<path d="M393.07 136.273H196.022V197.115H393.07V136.273Z" fill="#F0F0F0"/>
<path d="M413.002 140.001H176.036C174.956 140.001 174.038 139.137 174.038 138.002C174.038 137.462 174.254 136.921 174.632 136.597L239.396 74.2962V47.1713C239.396 46.0907 240.26 45.1721 241.395 45.1721H254.196C255.277 45.1721 256.195 46.0366 256.195 47.1713V58.1942L261.11 53.4933C277.693 37.4993 303.837 37.0671 320.96 52.5207L414.406 136.543C415.216 137.299 415.27 138.542 414.568 139.353C414.136 139.785 413.596 140.001 413.002 140.001Z" fill="#55BAA6"/>
<path d="M248.039 151.672C254.953 151.672 260.624 157.292 260.624 164.262V181.229H235.507V164.262C235.453 157.346 241.071 151.672 248.039 151.672Z" fill="white"/>
<path d="M294.546 151.889C301.46 151.889 307.132 157.508 307.132 164.478V181.445H281.96V164.478C281.96 157.562 287.578 151.889 294.546 151.889Z" fill="white"/>
<path d="M235.237 227.32C242.151 227.32 247.823 232.939 247.823 239.909V256.876H222.705V239.909C222.705 232.939 228.323 227.32 235.237 227.32Z" fill="white"/>
<path d="M438.659 215.324L396.797 196.79C396.581 196.682 396.311 196.628 396.095 196.628H196.67C196.454 196.628 196.238 196.682 196.022 196.736L150.487 215.27C149.569 215.648 149.136 216.675 149.515 217.593C149.785 218.242 150.433 218.674 151.135 218.674H162.964V279.516H161.668V285.676H427.478V279.516H425.263V218.728H437.957C438.929 218.728 439.739 217.918 439.739 216.945C439.685 216.243 439.253 215.648 438.659 215.324ZM421.698 279.57H166.475V218.728H421.698V279.57Z" fill="#32447C"/>
<path d="M263.703 178.797H231.51V184.093H263.703V178.797Z" fill="#CACACA"/>
<path d="M310.859 178.797H278.665V184.093H310.859V178.797Z" fill="#CACACA"/>
<path d="M250.902 255.093H218.708V260.388H250.902V255.093Z" fill="#CACACA"/>
<path d="M490.46 286H0.540154C0.216062 286 0 285.784 0 285.46C0 285.135 0.216062 284.919 0.540154 284.919H490.46C490.784 284.919 491 285.135 491 285.46C491 285.784 490.784 286 490.46 286Z" fill="#3F3D56"/>
<path d="M196.994 31.4476C196.724 31.4476 196.454 31.2314 196.454 30.9613C195.698 20.8029 187.271 12.9681 177.117 12.9681C176.522 12.9681 175.928 13.0221 175.28 13.0761C175.064 13.0761 174.848 12.9681 174.74 12.806C168.42 1.67504 154.322 -2.16134 143.249 4.16059C138.063 7.13244 134.174 12.0495 132.5 17.7771C132.446 17.9932 132.23 18.1553 131.96 18.1553H131.798C131.744 18.1553 131.636 18.1553 131.582 18.1553C123.911 18.1553 117.321 23.5587 115.701 31.0153C115.647 31.2855 115.431 31.4476 115.161 31.4476H78.3224C77.9983 31.4476 77.7822 31.1774 77.7822 30.9072C77.7822 30.583 78.0523 30.3669 78.3224 30.3669H114.729C116.619 22.5861 123.587 17.0746 131.582 17.0746C135.525 4.26866 149.083 -2.86378 161.83 1.08067C167.556 2.86378 172.471 6.70017 175.496 11.8874C176.036 11.8334 176.576 11.8334 177.063 11.8334C187.812 11.8874 196.724 20.1545 197.48 30.8532C197.534 31.1774 197.318 31.4476 196.994 31.4476C197.048 31.4476 197.048 31.4476 196.994 31.4476Z" fill="#CBCBCB"/>
<path d="M190.458 38.526H100.253C99.9285 38.526 99.7124 38.2558 99.7124 37.9856C99.7124 37.6614 99.9825 37.4453 100.253 37.4453H190.458C190.782 37.4453 190.998 37.7155 190.998 37.9856C190.998 38.2558 190.728 38.526 190.458 38.526Z" fill="#CBCBCB"/>
<path d="M122.237 46.5229H91.9883C91.6642 46.5229 91.4481 46.2528 91.4481 45.9826C91.4481 45.6584 91.7182 45.4423 91.9883 45.4423H122.237C122.561 45.4423 122.777 45.7124 122.777 45.9826C122.777 46.2528 122.561 46.4689 122.237 46.5229Z" fill="#CBCBCB"/>
<path d="M96.9576 276.328C103.926 278.327 104.034 268.493 105.114 264.062C101.171 266.764 94.5269 270.546 96.9576 276.22" fill="#283E84"/>
<path d="M97.3357 283.947C96.4175 278.76 96.3635 272.221 101.441 269.142C101.657 268.979 101.927 269.358 101.657 269.52C96.7416 272.492 96.9036 278.814 97.7679 283.839C97.8219 283.947 97.7139 284.055 97.6058 284.109C97.4978 284.109 97.3898 284.055 97.3357 283.947Z" fill="#3F3D56"/>
<path d="M99.6044 280.272C102.791 284.541 107.221 278.814 109.867 276.706C106.356 276.544 100.739 275.788 99.6584 280.218" fill="#55BAA6"/>
<path d="M96.4715 285.244C98.254 281.785 101.171 277.895 105.546 278.381C105.816 278.381 105.762 278.868 105.492 278.814C101.333 278.381 98.6321 282.11 96.9037 285.406C96.7416 285.676 96.3095 285.514 96.4715 285.244Z" fill="#3F3D56"/>
</g>
<defs>
<clipPath id="clip0_118_307">
<rect width="491" height="286" fill="white"/>
</clipPath>
</defs>
</svg>
