<svg width="60" height="47" viewBox="0 0 60 47" fill="none" xmlns="http://www.w3.org/2000/svg">
<path d="M0.00364025 30.5841C0.00364025 26.4251 0.00364025 22.265 0.00364025 18.1036C0.00364025 13.2027 2.54961 10.6455 7.41647 10.6381C8.75956 10.6381 10.1027 10.5976 11.4421 10.6381C12.383 10.6713 12.715 10.2696 12.7187 9.37052C12.713 8.12838 12.7796 6.88696 12.918 5.65253C13.3312 2.29565 15.8477 0.0405336 19.2608 0.0221095C26.1349 5.06528e-07 32.9758 0 39.8314 0C44.5729 0 46.9971 2.29196 47.2701 7.02697C47.3199 7.74219 47.3199 8.46001 47.2701 9.17523C47.1779 10.3286 47.6907 10.6823 48.794 10.6492C50.3732 10.5828 51.9599 10.6086 53.5391 10.6492C55.238 10.6568 56.8654 11.3325 58.0691 12.5297C59.2728 13.727 59.9559 15.3495 59.9704 17.046C60.0184 26.0849 60.0036 35.1238 59.9704 44.1627C59.9704 46.2114 59.1292 46.9853 57.0186 46.9889C50.3548 47.0037 43.691 47.0037 37.0272 46.9889C34.9646 46.9889 34.0753 46.1414 34.0016 44.0227C33.9314 41.6828 34.0016 39.3356 33.972 36.992C33.9499 34.8327 33.4776 34.361 31.3596 34.3426C30.3081 34.3426 29.2491 34.3205 28.1975 34.3426C26.5998 34.3868 26.0205 34.9211 25.9836 36.513C25.9356 38.8086 25.9836 41.1043 25.9578 43.3999C25.9356 46.2225 25.1681 46.9853 22.3897 46.9889C16.0137 46.9889 9.6365 46.9889 3.25805 46.9889C0.723153 46.9889 -0.0184993 46.252 -0.0258789 43.7684C-0.00374005 39.3724 0.00364025 34.9727 0.00364025 30.5841ZM4.70446 29.1102C4.70446 33.0775 4.70446 37.046 4.70446 41.0158C4.70446 41.7528 4.64911 42.4898 5.75236 42.4898C7.71903 42.4677 9.6857 42.534 11.6561 42.4382C11.8925 42.3702 12.1082 42.2442 12.2835 42.0717C12.4588 41.8993 12.5881 41.6858 12.6597 41.4506C12.7815 40.1241 12.6966 38.7755 12.7113 37.4379C12.7113 36.6198 12.2907 36.3324 11.5343 36.3766C11.0067 36.3987 10.3868 36.5388 9.97351 36.3177C9.40646 36.013 8.94764 35.5406 8.65993 34.9653C8.43855 34.49 8.61197 33.8378 8.60828 33.263C8.60828 32.3049 9.12854 31.9327 10.0473 31.8664C12.715 31.6711 12.715 31.6527 12.715 28.9959V28.1374C12.715 25.5764 12.7851 25.7717 10.4126 25.7127C9.82222 25.7127 8.90715 25.2669 8.72266 24.7989C7.83342 22.5327 8.75956 21.2873 11.1727 21.2504C11.3165 21.243 11.4606 21.243 11.6044 21.2504C12.4125 21.3094 12.7113 20.8819 12.7113 20.145C12.7113 18.8553 12.7113 17.5656 12.7113 16.2722C12.7113 15.491 12.383 15.141 11.6044 15.1668C10.265 15.1926 8.92191 15.1668 7.57882 15.1668C5.31328 15.1668 4.74136 15.7269 4.73398 17.9377C4.69339 21.6447 4.70446 25.3737 4.70446 29.1102ZM55.2954 29.2686C55.2954 25.3516 55.3139 21.4347 55.2954 17.5177C55.2954 15.819 54.646 15.1999 52.9303 15.1557C51.4543 15.1152 49.96 15.1557 48.4767 15.1373C47.7166 15.1373 47.2996 15.3952 47.307 16.2059C47.307 17.5435 47.2369 18.8884 47.3587 20.2113C47.3956 20.5798 47.9564 21.0293 48.3734 21.2062C48.7903 21.3831 49.3179 21.2688 49.7939 21.2504C50.9636 21.1951 51.4654 21.7663 51.4175 22.8975C51.3953 23.4208 51.565 24.0251 51.3584 24.4525C51.0714 24.9836 50.6337 25.4182 50.1002 25.7017C49.7312 25.9044 49.1593 25.7938 48.6833 25.7533C47.724 25.6796 47.2553 26.026 47.2959 27.0503C47.3439 28.2405 47.3328 29.4381 47.2959 30.6283C47.2664 31.5532 47.6649 31.9475 48.58 31.8738C49.008 31.8369 49.4397 31.8738 49.8714 31.8738C50.9784 31.8369 51.4396 32.4007 51.4101 33.4583C51.4101 33.9336 51.4101 34.4126 51.4101 34.888C51.4101 35.9013 50.8861 36.3619 49.8972 36.3619C49.4655 36.3619 49.0338 36.3987 48.6058 36.3619C47.7018 36.2956 47.2701 36.6456 47.2996 37.5889C47.3365 38.8307 47.3291 40.0725 47.2996 41.3143C47.2812 42.1766 47.6686 42.4971 48.5173 42.4824C50.2404 42.4455 51.9672 42.4013 53.683 42.4824C54.9523 42.5487 55.3434 42.0881 55.325 40.8426C55.2549 36.9994 55.2844 33.1303 55.2844 29.2649L55.2954 29.2686ZM27.6108 12.8527C27.6108 11.0987 27.3562 10.8408 25.6404 10.8481C24.0391 10.8481 23.7513 11.1577 23.7513 12.7974C23.7513 14.5661 23.9247 14.7356 25.7438 14.7283C27.4927 14.7393 27.6108 14.5882 27.6108 12.8527ZM32.3559 12.7937C32.3559 14.5661 32.485 14.7135 34.1676 14.7283C36.0125 14.7283 36.2081 14.5735 36.2154 12.8564C36.2228 11.1392 35.9572 10.8702 34.3705 10.8481C32.6658 10.826 32.3817 11.0987 32.3707 12.7937H32.3559ZM27.6108 23.5276C27.6108 21.7442 27.3636 21.4715 25.6958 21.4715C24.028 21.4715 23.7586 21.77 23.7513 23.3618C23.7513 25.1637 23.9173 25.3443 25.6884 25.3479C27.4595 25.3516 27.6108 25.219 27.6108 23.5276ZM34.2783 25.3479C36.0494 25.3479 36.2265 25.1674 36.2154 23.3655C36.2154 21.7626 35.9055 21.4678 34.2783 21.4678C32.6511 21.4678 32.3485 21.7515 32.3559 23.524C32.378 25.2153 32.5219 25.3516 34.293 25.3479H34.2783Z" fill="#3B4D84"/>
</svg>
