<svg width="290" height="156" viewBox="0 0 290 156" fill="none" xmlns="http://www.w3.org/2000/svg">
<g clip-path="url(#clip0_64_57)">
<path d="M62.6886 155.674H62.0356C62.0356 138.736 48.2898 124.996 31.3443 124.996C14.3988 124.996 0.653006 138.736 0.653006 155.674H0C0 138.377 14.0396 124.343 31.3443 124.343C48.649 124.343 62.6886 138.377 62.6886 155.674Z" fill="#3F3D56"/>
<path d="M289.935 155.674H289.282C289.282 138.736 275.536 124.996 258.59 124.996C241.645 124.996 227.899 138.736 227.899 155.674H227.246C227.246 138.377 241.286 124.343 258.59 124.343C275.895 124.343 289.935 138.377 289.935 155.674Z" fill="#3F3D56"/>
<path d="M213.207 80.9372H212.554C212.554 49.9983 187.348 24.8033 156.395 24.8033C125.443 24.8033 100.237 49.9983 100.237 80.9372H99.5835C99.5835 49.6393 125.083 24.1506 156.395 24.1506C187.707 24.1506 213.207 49.6393 213.207 80.9372Z" fill="#3F3D56"/>
<path d="M47.5062 25.7824C54.629 25.7824 60.4031 20.0108 60.4031 12.8912C60.4031 5.77159 54.629 0 47.5062 0C40.3835 0 34.6094 5.77159 34.6094 12.8912C34.6094 20.0108 40.3835 25.7824 47.5062 25.7824Z" fill="#FF6584"/>
<path d="M50.2488 101.628L72.4183 75.2586H115.974L142.584 101.172L142.061 101.498H142.225V155.413H50.2814V101.498L50.2488 101.628Z" fill="#3F3D56"/>
<path d="M68.5982 72.7782H63.5701V90.1406H68.5982V72.7782Z" fill="#3F3D56"/>
<path d="M72.0592 74.8996L99.3549 106.915V155.413H50.2815V100.813L72.0592 74.8996Z" fill="#2D4297"/>
<path d="M93.0534 113.247H83.0298V123.495H93.0534V113.247Z" fill="#3F3D56"/>
<path d="M93.0534 127.215H83.0298V137.463H93.0534V127.215Z" fill="#3F3D56"/>
<path d="M93.0534 113.247H83.0298V123.495H93.0534V113.247Z" fill="white"/>
<path d="M93.0534 127.215H83.0298V137.463H93.0534V127.215Z" fill="white"/>
<path d="M79.177 113.247H69.1533V123.495H79.177V113.247Z" fill="#3F3D56"/>
<path d="M79.177 127.215H69.1533V137.463H79.177V127.215Z" fill="#3F3D56"/>
<path d="M79.177 113.247H69.1533V123.495H79.177V113.247Z" fill="white"/>
<path d="M79.177 127.215H69.1533V137.463H79.177V127.215Z" fill="white"/>
<path d="M65.3332 113.247H55.3096V123.495H65.3332V113.247Z" fill="#3F3D56"/>
<path d="M65.3332 127.215H55.3096V137.463H65.3332V127.215Z" fill="#3F3D56"/>
<path d="M65.3332 113.247H55.3096V123.495H65.3332V113.247Z" fill="white"/>
<path d="M65.3332 127.215H55.3096V137.463H65.3332V127.215Z" fill="white"/>
<path d="M162.925 13.0544H158.354V24.477H162.925V13.0544Z" fill="#6C63FF"/>
<path d="M162.598 23.4979H123.745V155.674H162.598V23.4979Z" fill="#2D4297"/>
<path d="M178.271 23.4979H162.599V155.674H178.271V23.4979Z" fill="#3F3D56"/>
<path d="M136.641 34.9205H130.764V40.795H136.641V34.9205Z" fill="white"/>
<path d="M146.11 34.9205H140.233V40.795H146.11V34.9205Z" fill="white"/>
<path d="M155.579 34.9205H149.702V40.795H155.579V34.9205Z" fill="white"/>
<path d="M136.805 48.3013H130.928V54.1757H136.805V48.3013Z" fill="white"/>
<path d="M146.273 48.3013H140.396V54.1757H146.273V48.3013Z" fill="white"/>
<path d="M155.742 48.3013H149.865V54.1757H155.742V48.3013Z" fill="white"/>
<path d="M136.968 61.682H131.091V67.5565H136.968V61.682Z" fill="white"/>
<path d="M146.437 61.682H140.56V67.5565H146.437V61.682Z" fill="white"/>
<path d="M155.905 61.682H150.028V67.5565H155.905V61.682Z" fill="white"/>
<path d="M137.131 75.0628H131.254V80.9372H137.131V75.0628Z" fill="white"/>
<path d="M146.6 75.0628H140.723V80.9372H146.6V75.0628Z" fill="white"/>
<path d="M156.068 75.0628H150.191V80.9372H156.068V75.0628Z" fill="white"/>
<path d="M137.295 88.4435H131.417V94.318H137.295V88.4435Z" fill="white"/>
<path d="M146.763 88.4435H140.886V94.318H146.763V88.4435Z" fill="white"/>
<path d="M156.232 88.4435H150.355V94.318H156.232V88.4435Z" fill="white"/>
<path d="M137.458 101.824H131.581V107.699H137.458V101.824Z" fill="white"/>
<path d="M146.926 101.824H141.049V107.699H146.926V101.824Z" fill="white"/>
<path d="M156.395 101.824H150.518V107.699H156.395V101.824Z" fill="white"/>
<path d="M137.621 115.205H131.744V121.079H137.621V115.205Z" fill="white"/>
<path d="M147.09 115.205H141.213V121.079H147.09V115.205Z" fill="white"/>
<path d="M156.558 115.205H150.681V121.079H156.558V115.205Z" fill="white"/>
<path d="M137.784 128.586H131.907V134.46H137.784V128.586Z" fill="white"/>
<path d="M147.253 128.586H141.376V134.46H147.253V128.586Z" fill="white"/>
<path d="M147.253 144.251H141.376V155.347H147.253V144.251Z" fill="white"/>
<path d="M156.722 128.586H150.844V134.46H156.722V128.586Z" fill="white"/>
<path d="M165.211 13.0544H162.599V24.1506H165.211V13.0544Z" fill="#3F3D56"/>
<path d="M211.9 71.1464H207.329V77.9021H211.9V71.1464Z" fill="#6C63FF"/>
<path d="M211.574 77.3473H172.72V155.674H211.574V77.3473Z" fill="#2D4297"/>
<path d="M227.246 77.3473H211.574V155.674H227.246V77.3473Z" fill="#3F3D56"/>
<path d="M186.27 88.4435H180.393V94.318H186.27V88.4435Z" fill="white"/>
<path d="M195.739 88.4435H189.862V94.318H195.739V88.4435Z" fill="white"/>
<path d="M205.207 88.4435H199.33V94.318H205.207V88.4435Z" fill="white"/>
<path d="M186.433 101.824H180.556V107.699H186.433V101.824Z" fill="white"/>
<path d="M195.902 101.824H190.025V107.699H195.902V101.824Z" fill="white"/>
<path d="M205.37 101.824H199.493V107.699H205.37V101.824Z" fill="white"/>
<path d="M186.597 115.205H180.719V121.079H186.597V115.205Z" fill="white"/>
<path d="M196.065 115.205H190.188V121.079H196.065V115.205Z" fill="white"/>
<path d="M205.534 115.205H199.657V121.079H205.534V115.205Z" fill="white"/>
<path d="M186.76 128.586H180.883V134.46H186.76V128.586Z" fill="white"/>
<path d="M196.228 128.586H190.351V134.46H196.228V128.586Z" fill="white"/>
<path d="M196.228 144.251H190.351V155.347H196.228V144.251Z" fill="white"/>
<path d="M205.697 128.586H199.82V134.46H205.697V128.586Z" fill="white"/>
<path d="M214.186 71.1464H211.574V77.7389H214.186V71.1464Z" fill="#3F3D56"/>
<path d="M290 155.282H0.0654297V156H290V155.282Z" fill="#3F3D56"/>
<path d="M239.229 140.335C243.917 140.335 247.718 136.536 247.718 131.849C247.718 127.163 243.917 123.364 239.229 123.364C234.54 123.364 230.74 127.163 230.74 131.849C230.74 136.536 234.54 140.335 239.229 140.335Z" fill="#55BAA6"/>
<path opacity="0.2" d="M245.53 126.171C247.391 130.479 245.367 135.472 241.057 137.332C237.694 138.768 233.809 137.887 231.36 135.178C233.221 139.486 238.217 141.51 242.527 139.649C246.836 137.789 248.861 132.796 247 128.488C246.64 127.639 246.151 126.889 245.53 126.171Z" fill="black"/>
<path d="M239.229 131.849H239.261L239.686 155.967H238.804L239.229 131.849Z" fill="#3F3D56"/>
<path d="M240.624 144.612L239.209 145.357L239.406 145.732L240.822 144.987L240.624 144.612Z" fill="#3F3D56"/>
<path d="M264.206 132.241C271.347 132.241 277.136 126.455 277.136 119.317C277.136 112.18 271.347 106.393 264.206 106.393C257.066 106.393 251.277 112.18 251.277 119.317C251.277 126.455 257.066 132.241 264.206 132.241Z" fill="#2D4297"/>
<path opacity="0.2" d="M273.838 110.701C276.646 117.261 273.61 124.865 267.047 127.672C261.953 129.859 256.011 128.521 252.322 124.376C255.129 130.936 262.737 133.971 269.3 131.164C275.862 128.357 278.899 120.753 276.091 114.193C275.503 112.92 274.752 111.713 273.838 110.701Z" fill="black"/>
<path d="M264.239 119.317H264.272L264.925 155.967H263.586L264.239 119.317Z" fill="#3F3D56"/>
<path d="M266.314 138.697L264.176 139.822L264.48 140.4L266.618 139.274L266.314 138.697Z" fill="#3F3D56"/>
<path d="M8.71759 140.008C13.406 140.008 17.2067 136.209 17.2067 131.523C17.2067 126.837 13.406 123.038 8.71759 123.038C4.02921 123.038 0.228516 126.837 0.228516 131.523C0.228516 136.209 4.02921 140.008 8.71759 140.008Z" fill="#55BAA6"/>
<path opacity="0.2" d="M15.0191 125.844C16.8802 130.152 14.8559 135.146 10.546 137.006C7.18304 138.442 3.29765 137.561 0.848877 134.852C2.70994 139.16 7.70544 141.183 12.0153 139.323C16.3251 137.463 18.3494 132.469 16.4884 128.162C16.1292 127.313 15.6395 126.562 15.0191 125.844Z" fill="black"/>
<path d="M8.71767 131.523H8.75032L9.17477 155.641H8.29321L8.71767 131.523Z" fill="#3F3D56"/>
<path d="M10.104 144.295L8.68823 145.04L8.88598 145.415L10.3017 144.67L10.104 144.295Z" fill="#3F3D56"/>
<path d="M197.991 12.1732L200.995 9.75816C198.644 9.49707 197.697 10.7699 197.306 11.7816C195.477 11.031 193.486 12.01 193.486 12.01L199.493 14.1967C199.199 13.4134 198.677 12.6954 197.991 12.1732Z" fill="#3F3D56"/>
<path d="M47.1471 24.2485L50.1509 21.8335C47.8001 21.5724 46.8532 22.8452 46.4614 23.8569C44.633 23.1063 42.6414 24.0854 42.6414 24.0854L48.649 26.272C48.3552 25.4887 47.8328 24.7707 47.1471 24.2485Z" fill="#3F3D56"/>
<path d="M243.702 36.6502L246.706 34.2351C244.355 33.9741 243.408 35.2469 243.016 36.2586C241.188 35.5079 239.196 36.487 239.196 36.487L245.204 38.6736C244.91 37.8904 244.387 37.1724 243.702 36.6502Z" fill="#3F3D56"/>
<path d="M71.9613 17.7213L74.9651 15.3063C72.6143 15.0452 71.6675 16.318 71.2756 17.3297C69.4472 16.5791 67.4556 17.5582 67.4556 17.5582L73.4632 19.7448C73.1694 18.9615 72.647 18.2435 71.9613 17.7213Z" fill="#3F3D56"/>
<path d="M77.5118 43.8301L80.5157 41.4151C78.1648 41.154 77.218 42.4268 76.8262 43.4385C74.9978 42.6879 73.0061 43.6669 73.0061 43.6669L79.0138 45.8536C78.7199 45.0703 78.1975 44.3523 77.5118 43.8301Z" fill="#3F3D56"/>
<path d="M194.4 57.5372L197.404 55.1222C195.053 54.8611 194.106 56.1339 193.714 57.1456C191.886 56.395 189.894 57.3741 189.894 57.3741L195.902 59.5607C195.608 58.7774 195.085 58.0594 194.4 57.5372Z" fill="#3F3D56"/>
<path d="M34.6094 148.82H14.3662V149.473H17.5333V155.674H18.1863V149.473H30.4628V155.674H31.1158V149.473H34.6094V148.82Z" fill="#3F3D56"/>
<path d="M55.179 151.431C54.3954 151.431 53.5791 151.627 52.8935 152.051C50.9018 150.256 47.8 150.387 45.9716 152.41C45.1553 153.324 44.6982 154.466 44.6982 155.706H59.6847C59.5541 153.291 57.5625 151.431 55.179 151.431Z" fill="#3F3D56"/>
<path d="M132.56 151.431C131.777 151.431 130.96 151.627 130.275 152.051C128.283 150.256 125.181 150.387 123.353 152.41C122.537 153.324 122.08 154.466 122.08 155.706H137.066C136.935 153.291 134.944 151.431 132.56 151.431Z" fill="#3F3D56"/>
<path d="M183.168 151.431C182.385 151.431 181.568 151.627 180.883 152.051C178.891 150.256 175.789 150.387 173.961 152.41C173.145 153.324 172.688 154.466 172.688 155.706H187.674C187.543 153.291 185.552 151.431 183.168 151.431Z" fill="#3F3D56"/>
<path d="M249.775 151.431C248.991 151.431 248.175 151.627 247.489 152.051C245.498 150.256 242.396 150.387 240.567 152.41C239.751 153.324 239.294 154.466 239.294 155.706H254.28C254.15 153.291 252.158 151.431 249.775 151.431Z" fill="#3F3D56"/>
<path d="M281.772 151.431C280.989 151.431 280.172 151.627 279.487 152.051C277.495 150.256 274.393 150.387 272.565 152.41C271.749 153.324 271.292 154.466 271.292 155.706H286.278C286.147 153.291 284.156 151.431 281.772 151.431Z" fill="#3F3D56"/>
<path d="M42.1188 132.828H36.8948V138.05H39.3109V155.641H39.9639V138.05H42.1188V132.828Z" fill="#3F3D56"/>
<path d="M34.6419 146.862H14.3987V147.515H34.6419V146.862Z" fill="#3F3D56"/>
<path d="M34.6419 145.23H14.3987V145.883H34.6419V145.23Z" fill="#3F3D56"/>
<path d="M34.6419 143.598H14.3987V144.251H34.6419V143.598Z" fill="#3F3D56"/>
</g>
<defs>
<clipPath id="clip0_64_57">
<rect width="290" height="156" fill="white"/>
</clipPath>
</defs>
</svg>
