<svg width="31" height="31" viewBox="0 0 31 31" fill="none" xmlns="http://www.w3.org/2000/svg">
<path d="M0.5 3.875C0.5 2.97989 0.855579 2.12145 1.48851 1.48851C2.12145 0.855579 2.97989 0.5 3.875 0.5H24.125C25.0201 0.5 25.8785 0.855579 26.5115 1.48851C27.1444 2.12145 27.5 2.97989 27.5 3.875V14.033C25.628 12.8357 23.4031 12.3138 21.1939 12.5538C18.9847 12.7938 16.9238 13.7812 15.3525 15.3525C13.7812 16.9238 12.7938 18.9847 12.5538 21.1939C12.3138 23.4031 12.8357 25.628 14.033 27.5H3.875C2.97989 27.5 2.12145 27.1444 1.48851 26.5115C0.855579 25.8785 0.5 25.0201 0.5 24.125V3.875ZM11.42 9.17C11.5305 9.06701 11.6192 8.94281 11.6807 8.80481C11.7422 8.66681 11.7752 8.51784 11.7779 8.36678C11.7806 8.21573 11.7528 8.06569 11.6962 7.9256C11.6396 7.78552 11.5554 7.65827 11.4486 7.55144C11.3417 7.44461 11.2145 7.3604 11.0744 7.30382C10.9343 7.24723 10.7843 7.21945 10.6332 7.22211C10.4822 7.22478 10.3332 7.25784 10.1952 7.31933C10.0572 7.38082 9.93299 7.46947 9.83 7.58L7.625 9.785L6.92 9.08C6.70674 8.88128 6.42467 8.77309 6.13322 8.77824C5.84176 8.78338 5.56369 8.90145 5.35757 9.10757C5.15145 9.31369 5.03338 9.59177 5.02824 9.88322C5.0231 10.1747 5.13128 10.4567 5.33 10.67L6.83 12.17C7.04094 12.3807 7.32687 12.499 7.625 12.499C7.92313 12.499 8.20906 12.3807 8.42 12.17L11.42 9.17ZM11.42 17.42C11.5305 17.317 11.6192 17.1928 11.6807 17.0548C11.7422 16.9168 11.7752 16.7678 11.7779 16.6168C11.7806 16.4657 11.7528 16.3157 11.6962 16.1756C11.6396 16.0355 11.5554 15.9083 11.4486 15.8014C11.3417 15.6946 11.2145 15.6104 11.0744 15.5538C10.9343 15.4972 10.7843 15.4694 10.6332 15.4721C10.4822 15.4748 10.3332 15.5078 10.1952 15.5693C10.0572 15.6308 9.93299 15.7195 9.83 15.83L7.625 18.035L6.92 17.33C6.70674 17.1313 6.42467 17.0231 6.13322 17.0282C5.84176 17.0334 5.56369 17.1514 5.35757 17.3576C5.15145 17.5637 5.03338 17.8418 5.02824 18.1332C5.0231 18.4247 5.13128 18.7067 5.33 18.92L6.83 20.42C7.04094 20.6307 7.32687 20.749 7.625 20.749C7.92313 20.749 8.20906 20.6307 8.42 20.42L11.42 17.42ZM15.875 8.75C15.5766 8.75 15.2905 8.86853 15.0795 9.07951C14.8685 9.29048 14.75 9.57663 14.75 9.875C14.75 10.1734 14.8685 10.4595 15.0795 10.6705C15.2905 10.8815 15.5766 11 15.875 11H21.125C21.4234 11 21.7095 10.8815 21.9205 10.6705C22.1315 10.4595 22.25 10.1734 22.25 9.875C22.25 9.57663 22.1315 9.29048 21.9205 9.07951C21.7095 8.86853 21.4234 8.75 21.125 8.75H15.875ZM30.5 22.25C30.5 20.062 29.6308 17.9635 28.0836 16.4164C26.5365 14.8692 24.438 14 22.25 14C20.062 14 17.9635 14.8692 16.4164 16.4164C14.8692 17.9635 14 20.062 14 22.25C14 24.438 14.8692 26.5365 16.4164 28.0836C17.9635 29.6308 20.062 30.5 22.25 30.5C24.438 30.5 26.5365 29.6308 28.0836 28.0836C29.6308 26.5365 30.5 24.438 30.5 22.25ZM23 23L23.0015 26.7545C23.0015 26.9534 22.9225 27.1442 22.7818 27.2848C22.6412 27.4255 22.4504 27.5045 22.2515 27.5045C22.0526 27.5045 21.8618 27.4255 21.7212 27.2848C21.5805 27.1442 21.5015 26.9534 21.5015 26.7545V23H17.744C17.5451 23 17.3543 22.921 17.2137 22.7803C17.073 22.6397 16.994 22.4489 16.994 22.25C16.994 22.0511 17.073 21.8603 17.2137 21.7197C17.3543 21.579 17.5451 21.5 17.744 21.5H21.5V17.75C21.5 17.5511 21.579 17.3603 21.7197 17.2197C21.8603 17.079 22.0511 17 22.25 17C22.4489 17 22.6397 17.079 22.7803 17.2197C22.921 17.3603 23 17.5511 23 17.75V21.5H26.7545C26.9534 21.5 27.1442 21.579 27.2848 21.7197C27.4255 21.8603 27.5045 22.0511 27.5045 22.25C27.5045 22.4489 27.4255 22.6397 27.2848 22.7803C27.1442 22.921 26.9534 23 26.7545 23H23.0015H23Z" fill="white"/>
</svg>
