<svg id="Layer_1" data-name="Layer 1" xmlns="http://www.w3.org/2000/svg" viewBox="0 0 138.42 139.18"><defs><style>.cls-1{fill:#55baa6}</style></defs><path class="cls-1" d="M24.42 70.18h22v12l27.33.73 1.67 14.27 25-3-1 21h-75v-45z"/><path d="M124.63 60c-13 20.66-14.54 41.11.05 60.59s34.26 24.12 57.42 16.8c.1 1.35.25 2.38.25 3.41v47c0 6.28-3.11 9.64-9.34 10.18-1 .08-2 .06-2.94.06H71.25a30.54 30.54 0 0 1-5-.36 8.91 8.91 0 0 1-7.34-8.91V69.1c0-5.87 3.74-9.31 10.12-9.34 12-.07 23.92 0 35.88 0h15.89c1.09.05 2.14.17 3.83.24Zm-22.15 91.44c0-5.77-.09-11.54 0-17.32 0-2.34-.79-3.1-3.06-3-3.72.13-7.44.07-11.16 0-1.67 0-2.54.52-2.53 2.35q.06 17.76 0 35.52c0 1.78.73 2.41 2.47 2.38 3.91-.07 7.83-.09 11.74 0 2 .05 2.54-.78 2.52-2.63-.02-5.74.02-11.49.02-17.27Zm27.07 6.18c0-3.92-.05-7.84 0-11.76 0-1.78-.69-2.48-2.43-2.46h-11.77c-1.64 0-2.6.52-2.6 2.35v23.23c0 1.77.74 2.43 2.49 2.4 3.92-.07 7.84-.09 11.76 0 1.93 0 2.61-.71 2.56-2.6-.07-3.68-.01-7.41-.01-11.13Zm10.3 5.46v5.88c-.05 1.75.71 2.45 2.47 2.42 3.82-.07 7.65 0 11.47 0 1.54 0 2.44-.47 2.42-2.15 0-3.92.11-7.85-.1-11.76a3 3 0 0 0-2.07-2 49.64 49.64 0 0 0-6.46-.1c-7.74.01-7.74.01-7.73 7.74Z" transform="translate(-58.94 -58.94)" style="fill:#2d4296"/><path class="cls-1" d="M196.9 99.29c-.91 5.44-3.52 9.61-6.73 13.49-15 18.12-46.43 13.83-56-7.63-7.62-17.14-.78-37 15.39-44.76a19.53 19.53 0 0 1 1.89-.81c3.79-1.36 4.83-.67 4.84 3.3v32.07c0 4.1 0 4.11 4 4.11h33c1.12.02 2.25.14 3.61.23Z" transform="translate(-58.94 -58.94)"/><path class="cls-1" d="M196.49 82.36H180.4c-7.32 0-7.32 0-7.32-7.3V62.43c0-3.55.87-4.17 4.27-2.8a32.35 32.35 0 0 1 14.78 12.11 103.47 103.47 0 0 1 5.22 9.62Z" transform="translate(-58.94 -58.94)"/></svg>