<svg width="207" height="216" viewBox="0 0 207 216" fill="none" xmlns="http://www.w3.org/2000/svg">
<g opacity="0.25" clip-path="url(#clip0_125_371)">
<path d="M90.1004 126.083C74.0008 159.473 79.0301 188.904 103.977 215.644C102.553 215.758 101.285 215.943 100.017 215.943H9.85918C2.56452 215.943 0 213.352 0 206.076V27.7084C0 20.8596 2.9777 17.7413 9.97316 17.5847C18.3364 17.4423 26.7138 17.5847 35.7181 17.5847C35.7181 14.6373 35.7181 11.8892 35.7181 9.26934C35.8749 3.2464 39.1233 0.0711844 45.1357 0.0569458H116.985C122.684 0.0569458 126.018 3.18944 126.289 8.95609C126.417 11.6614 126.289 14.381 126.289 17.5847C134.595 17.5847 142.488 17.5847 150.367 17.5847C159.001 17.5847 162.007 20.6033 162.007 29.118C162.007 48.0174 162.007 66.9216 162.007 85.8305V90.4295C136.775 87.9947 116.045 96.125 98.5205 114.635C95.956 107.516 90.1004 107.872 84.2019 107.929C71.707 108.043 59.1978 107.929 46.6886 107.929C39.9211 107.929 35.6754 111.446 35.7039 116.842C35.7324 122.239 39.9781 126.012 46.5746 126.04C60.9075 126.126 75.2261 126.083 90.1004 126.083ZM80.6686 89.803C92.4084 89.803 104.134 89.803 115.874 89.803C121.972 89.803 125.947 86.3288 126.004 81.0748C126.061 75.8207 122.214 71.9335 116.187 71.9051C92.5651 71.7912 68.9478 71.7912 45.3351 71.9051C39.3227 71.9051 35.5187 75.9488 35.7324 81.2029C35.9461 86.457 39.6647 89.7461 45.9335 89.7461L80.6686 89.803ZM107.867 35.5254V17.7983H54.197V35.5254H107.867ZM57.8728 162.05C62.2895 162.05 66.7062 162.15 71.1086 162.05C76.6366 161.907 80.7256 158.319 80.8111 153.763C80.9108 148.281 77.3205 144.337 71.4363 144.195C62.6219 143.976 53.7933 143.976 44.9504 144.195C39.2515 144.351 35.4902 148.352 35.7181 153.364C35.9461 158.376 39.7359 161.907 45.5346 162.036C49.6521 162.135 53.7553 162.064 57.8728 162.05Z" fill="#55BAA6"/>
<path d="M153.031 107.957C123.439 107.957 98.9909 132.163 98.8911 161.509C98.7914 194.927 126.887 217.153 152.76 215.943C181.056 217.367 207.328 192.051 206.9 162.947C206.615 132.049 183.35 107.943 153.031 107.957ZM153.359 139.539C155.701 139.602 157.926 140.576 159.56 142.254C161.194 143.932 162.108 146.182 162.107 148.523C161.96 150.851 160.942 153.039 159.255 154.651C157.569 156.263 155.336 157.181 153.003 157.223C151.814 157.177 150.645 156.896 149.566 156.395C148.487 155.894 147.518 155.184 146.716 154.306C145.914 153.427 145.294 152.398 144.894 151.278C144.493 150.159 144.32 148.97 144.383 147.783C144.505 145.514 145.508 143.383 147.18 141.843C148.851 140.303 151.058 139.476 153.33 139.539H153.359ZM165.426 184.404C161.266 184.305 157.092 184.404 152.931 184.404C148.771 184.404 144.383 184.404 140.109 184.404C138.171 184.404 137.259 183.664 137.331 181.685C137.331 177.641 137.217 173.597 137.331 169.582C137.544 165.111 141.106 161.68 146.135 161.366C150.646 161.053 155.174 161.053 159.685 161.366C165.27 161.751 168.475 165.467 168.561 171.02C168.561 174.452 168.475 177.897 168.561 181.343C168.689 183.664 167.677 184.461 165.426 184.404ZM176.981 153.079H173.804V156.24H171.368V153.079H168.19V150.702H171.368V147.526H173.804V150.702H176.981V153.079Z" fill="#2D4297"/>
</g>
<defs>
<clipPath id="clip0_125_371">
<rect width="207" height="216" fill="white"/>
</clipPath>
</defs>
</svg>
