<svg width="313" height="156" viewBox="0 0 313 156" fill="none" xmlns="http://www.w3.org/2000/svg">
<g clip-path="url(#clip0_31_228)">
<path d="M85.4638 127.589C93.9645 127.589 100.856 120.698 100.856 112.196C100.856 103.694 93.9645 96.8027 85.4638 96.8027C76.9632 96.8027 70.0721 103.694 70.0721 112.196C70.0721 120.698 76.9632 127.589 85.4638 127.589Z" fill="#E4E4E4"/>
<path opacity="0.2" d="M74.1008 101.934C70.7607 109.751 74.3762 118.808 82.1926 122.148C88.2873 124.731 95.3462 123.181 99.7192 118.223C96.3792 126.04 87.3232 129.656 79.5068 126.315C71.6904 122.975 68.0749 113.918 71.4149 106.101C72.1036 104.585 72.9989 103.174 74.1008 101.934Z" fill="black"/>
<path d="M85.4983 112.196H85.5327L86.2902 155.828H84.7063L85.4983 112.196Z" fill="#3F3D56"/>
<path d="M54.336 98.9033C71.4704 98.9033 85.3605 85.0117 85.3605 67.8755C85.3605 50.7393 71.4704 36.8477 54.336 36.8477C37.2016 36.8477 23.3115 50.7393 23.3115 67.8755C23.3115 85.0117 37.2016 98.9033 54.336 98.9033Z" fill="#E4E4E4"/>
<path opacity="0.2" d="M31.4377 47.1444C24.6888 62.9166 32.0231 81.1338 47.7592 87.8834C60.0175 93.1179 74.2385 89.9497 83.1223 79.9973C76.3734 95.7695 58.1581 103.07 42.3876 96.3205C26.6171 89.5709 19.3172 71.3536 26.0661 55.5815C27.3746 52.5166 29.1996 49.6583 31.4377 47.1444Z" fill="black"/>
<path d="M54.4049 67.8755H54.5082L56.0232 155.828H52.7865L54.4049 67.8755Z" fill="#3F3D56"/>
<path d="M258.836 110.302H116.661V152.453H258.836V110.302Z" fill="#F0F0F0"/>
<path d="M196.03 119.015H179.467V152.453H196.03V119.015Z" fill="#CACACA"/>
<path d="M250.572 60.5748H124.959V99.351H250.572V60.5748Z" fill="#F0F0F0"/>
<path d="M263.278 62.951H112.219C111.53 62.951 110.945 62.4 110.945 61.6768C110.945 61.3325 111.082 60.9881 111.323 60.7815L152.643 21.0755V3.78808C152.643 3.09934 153.194 2.51391 153.918 2.51391H162.078C162.767 2.51391 163.352 3.0649 163.352 3.78808V10.8132L166.486 7.81722C177.057 -2.37616 193.723 -2.65166 204.638 7.19735L264.208 60.747C264.724 61.2291 264.759 62.0212 264.311 62.5378C264.001 62.8132 263.657 62.951 263.278 62.951Z" fill="#CACACA"/>
<path d="M158.118 70.3894C162.526 70.3894 166.141 73.9709 166.141 78.4132V89.2265H150.13V78.4132C150.095 73.9709 153.676 70.3894 158.118 70.3894Z" fill="white"/>
<path d="M187.766 70.5272C192.173 70.5272 195.789 74.1086 195.789 78.551V89.3642H179.743V78.551C179.743 74.1086 183.324 70.5272 187.766 70.5272Z" fill="white"/>
<path d="M217.413 70.6649C221.82 70.6649 225.436 74.2464 225.436 78.6887V89.502H209.424V78.6887C209.39 74.2464 212.971 70.6649 217.413 70.6649Z" fill="white"/>
<path d="M229.189 118.601C233.596 118.601 237.212 122.183 237.212 126.625V137.404H221.2V126.591C221.2 122.183 224.782 118.601 229.189 118.601Z" fill="white"/>
<path d="M149.958 118.601C154.365 118.601 157.981 122.183 157.981 126.625V137.404H141.969V126.591C141.969 122.183 145.55 118.601 149.958 118.601Z" fill="white"/>
<path d="M279.634 110.956L252.948 99.1444C252.81 99.0755 252.638 99.0411 252.5 99.0411H125.372C125.234 99.0411 125.097 99.0755 124.959 99.1099L95.9316 110.922C95.3462 111.163 95.0708 111.817 95.3118 112.403C95.484 112.816 95.8972 113.091 96.3448 113.091H103.886V151.868H103.059V155.793H272.506V151.868H271.095V113.126H279.186C279.806 113.126 280.323 112.609 280.323 111.989C280.288 111.542 280.013 111.128 279.634 110.956ZM268.822 151.902H106.124V113.126H268.822V151.902Z" fill="#CACACA"/>
<path d="M168.104 87.6768H147.582V91.0517H168.104V87.6768Z" fill="#CACACA"/>
<path d="M198.164 87.6768H177.642V91.0517H198.164V87.6768Z" fill="#CACACA"/>
<path d="M228.225 87.6768H207.703V91.0517H228.225V87.6768Z" fill="#CACACA"/>
<path d="M239.485 136.302H218.962V139.677H239.485V136.302Z" fill="#CACACA"/>
<path d="M159.943 136.302H139.421V139.677H159.943V136.302Z" fill="#CACACA"/>
<path d="M312.656 156H0.344334C0.137734 156 0 155.862 0 155.656C0 155.449 0.137734 155.311 0.344334 155.311H312.656C312.862 155.311 313 155.449 313 155.656C313 155.862 312.862 156 312.656 156Z" fill="#3F3D56"/>
<path d="M234.113 59.9894C234.113 60.196 234.113 60.4371 234.113 60.6437C234.113 60.9192 234.113 61.1603 234.079 61.4358C234.079 61.6768 234.044 61.8834 234.044 62.1245C234.01 62.8821 233.941 63.6397 233.838 64.3974C233.803 64.604 233.803 64.7762 233.769 64.9828C233.734 65.1205 233.734 65.2927 233.7 65.4305C233.665 65.6027 233.665 65.7748 233.631 65.947C233.562 66.2914 233.528 66.6702 233.459 67.0146C233.424 67.1868 233.39 67.3589 233.355 67.5656C233.287 67.9099 233.218 68.2887 233.114 68.6331C233.114 68.6676 233.114 68.702 233.08 68.702C233.046 68.8742 233.011 69.0464 232.942 69.2185C232.942 69.253 232.908 69.3219 232.908 69.3563C232.873 69.494 232.839 69.6318 232.805 69.7351C232.77 69.9073 232.701 70.0795 232.667 70.2861C232.598 70.5616 232.495 70.8371 232.426 71.147C232.426 71.1815 232.391 71.2159 232.391 71.2503C232.219 71.7669 232.047 72.3179 231.875 72.8344C231.772 73.1099 231.668 73.3854 231.565 73.6609C231.462 73.9364 231.358 74.2119 231.221 74.4874C231.117 74.7629 230.98 75.004 230.876 75.2795C230.842 75.3484 230.807 75.4172 230.807 75.4517C230.67 75.7272 230.566 76.0027 230.429 76.2437C230.325 76.4503 230.222 76.657 230.119 76.898C230.015 77.1046 229.912 77.3113 229.809 77.5179L229.637 77.8623L229.602 77.8967C229.396 78.3099 229.155 78.7232 228.914 79.102C228.879 79.2053 228.81 79.2742 228.776 79.3775C228.707 79.4808 228.673 79.5497 228.604 79.653C228.569 79.7219 228.535 79.7907 228.5 79.8252C228.431 79.9285 228.363 80.0662 228.294 80.1695C228.294 80.204 228.259 80.204 228.259 80.2384C228.122 80.445 227.984 80.6517 227.881 80.8583C227.708 81.0993 227.536 81.3404 227.398 81.5815L223.645 87.5735L223.473 87.4358L223.439 87.4013L223.301 87.2636L222.888 86.9192C222.75 87.057 222.647 87.1603 222.509 87.2636C222.474 87.298 222.406 87.3669 222.371 87.4013C222.337 87.4358 222.302 87.4702 222.268 87.5046C215.794 93.8066 207.22 97.4914 198.164 97.7669C191.312 97.9391 184.563 96.355 178.537 93.1179C178.4 93.049 178.262 92.9801 178.124 92.9113C177.332 92.498 176.575 92.0503 175.817 91.5338C174.956 90.9139 174.096 90.2596 173.269 89.5364C164.213 81.8914 159.255 70.4583 159.874 58.6119C159.874 58.3709 159.909 58.1642 159.909 57.9232C159.978 57.0967 160.047 56.2702 160.15 55.4437C160.184 55.2026 160.219 54.996 160.253 54.755H233.872C234.01 55.8225 234.113 56.8556 234.182 57.9232C234.079 58.6464 234.113 59.3007 234.113 59.9894Z" fill="#F0F0F0"/>
<path d="M233.734 54.8238C230.67 34.506 211.731 20.4901 191.381 23.555C175.232 26 162.526 38.6728 160.116 54.8238C160.081 55.0649 160.047 55.2715 160.012 55.5126C159.909 56.3391 159.806 57.1656 159.771 57.9921H234.044C234.01 56.9245 233.906 55.857 233.734 54.8238Z" fill="#55BAA6"/>
<path d="M199.37 93.1523H178.021V76.106C178.4 68.3232 185.08 67.6689 191.347 68.0821C195.754 68.0821 199.37 71.6636 199.37 76.106V93.1523Z" fill="#2D4297"/>
<path d="M169.447 54.8238C169.447 54.8927 169.413 54.996 169.413 55.0993C169.413 54.996 169.447 54.8927 169.447 54.8238ZM169.034 57.992C169.034 58.1298 168.999 58.2675 168.999 58.3709C168.999 58.2675 168.999 58.1298 169.034 57.992C169.034 57.9576 169.034 57.9576 169.034 57.9232C169.034 57.9576 169.034 57.9576 169.034 57.992ZM169.447 54.8238C169.447 54.8927 169.413 54.996 169.413 55.0993C169.413 54.996 169.447 54.8927 169.447 54.8238ZM168.999 58.3709C168.999 58.2331 169.034 58.0954 169.034 57.992C169.034 57.9576 169.034 57.9576 169.034 57.9232C169.034 57.9576 169.034 57.9576 169.034 57.992C168.999 58.1298 168.999 58.2675 168.999 58.3709ZM275.364 121.735C275.295 121.666 275.227 121.597 275.158 121.528L258.113 107.134L257.665 106.755L255.978 105.343L255.565 104.999L253.189 102.967L252.535 102.416L251.192 101.279L250.503 100.694L243.961 95.1841L240.208 92.0159L239.691 91.6026L228.672 82.3046C228.845 82.0636 229.017 81.8225 229.155 81.5815C229.292 81.3748 229.43 81.1682 229.533 80.9616C229.533 80.9272 229.568 80.9271 229.568 80.8927C229.637 80.7894 229.705 80.6517 229.774 80.5483C229.809 80.4795 229.843 80.4106 229.878 80.3762C229.947 80.3073 229.981 80.204 230.05 80.1007C230.084 80.0318 230.153 79.9285 230.188 79.8252C230.429 79.4119 230.67 78.9987 230.876 78.6199L230.911 78.5854L231.083 78.2411C231.186 78.0344 231.289 77.8278 231.393 77.6212C231.496 77.4146 231.599 77.2079 231.703 76.9669C231.84 76.6914 231.944 76.4503 232.081 76.1748C232.116 76.106 232.15 76.0371 232.15 76.0026C232.254 75.7272 232.391 75.4861 232.495 75.2106C232.598 74.9351 232.701 74.6596 232.839 74.3841C232.942 74.1086 233.046 73.8331 233.149 73.5576C233.355 73.0411 233.528 72.4901 233.665 71.9735C233.665 71.9391 233.665 71.9046 233.7 71.8702C233.769 71.5947 233.872 71.3192 233.941 71.0093C233.975 70.8371 234.044 70.6649 234.079 70.4583C234.113 70.3205 234.147 70.1828 234.182 70.0795C234.182 70.045 234.216 69.9762 234.216 69.9417C234.251 69.7695 234.285 69.5974 234.354 69.4252C234.354 69.3907 234.354 69.3563 234.388 69.3563C234.457 69.0119 234.561 68.6331 234.629 68.2887C234.664 68.1166 234.698 67.9444 234.733 67.7377C234.802 67.3934 234.871 67.0146 234.905 66.6702C234.939 66.498 234.974 66.3258 234.974 66.1536C235.008 66.0159 235.008 65.8437 235.043 65.706C235.077 65.4993 235.077 65.3272 235.112 65.1205C235.215 64.3629 235.249 63.6053 235.318 62.8477C235.318 62.6066 235.353 62.4 235.353 62.1589C235.353 61.8834 235.387 61.6424 235.387 61.3669C235.387 61.1603 235.387 60.9192 235.387 60.7126C235.387 60.0583 235.353 59.3695 235.353 58.7152C235.284 57.6477 235.18 56.5801 235.043 55.547C232.219 34.8159 213.109 20.2834 192.345 23.1417C175.748 25.4146 162.629 38.294 160.047 54.8583C160.012 55.0993 159.978 55.306 159.943 55.547C159.84 56.3735 159.737 57.2 159.702 58.0265C159.702 58.2675 159.668 58.4742 159.668 58.7152C159.048 70.5616 164.006 81.9947 173.062 89.6397C173.889 90.3285 174.75 91.0172 175.611 91.6371C175.92 91.8437 176.196 92.0503 176.506 92.257C176.988 92.5669 177.47 92.8768 177.918 93.1523C177.952 93.1868 177.986 93.1868 178.021 93.2212C178.434 93.4623 178.847 93.7033 179.26 93.9444C180.81 94.8053 182.428 95.5285 184.081 96.1483C188.936 97.9735 194.136 98.8 199.301 98.5245C205.361 98.2146 211.249 96.4927 216.483 93.4278C217.241 92.9801 217.998 92.5325 218.721 92.0159C218.893 91.8781 219.1 91.7748 219.272 91.6371C219.479 91.4649 219.72 91.3272 219.926 91.155L219.961 91.1205C220.099 91.0172 220.271 90.8795 220.408 90.7762C220.443 90.7417 220.477 90.7073 220.512 90.7073C220.512 90.7073 220.546 90.7073 220.546 90.6728C220.615 90.604 220.718 90.5351 220.787 90.4662C220.856 90.3974 220.959 90.3285 221.028 90.2596L221.063 90.2252C221.166 90.1563 221.269 90.053 221.338 89.9841C221.441 89.9152 221.545 89.8119 221.614 89.743C221.717 89.6742 221.82 89.5709 221.889 89.502C221.958 89.4331 222.061 89.3642 222.13 89.2954C222.165 89.2609 222.165 89.2609 222.199 89.2265L222.233 89.1921C222.337 89.0887 222.474 88.9854 222.578 88.8821C222.612 88.8477 222.612 88.8477 222.647 88.8132C222.819 88.6755 222.991 88.5033 223.163 88.3656C223.198 88.3311 223.232 88.2967 223.266 88.2622C223.301 88.2278 223.335 88.1934 223.37 88.1589C223.404 88.1245 223.473 88.0556 223.507 88.0212C223.645 87.9179 223.749 87.7801 223.886 87.6768L224.299 88.0212L224.437 88.1589L224.472 88.1934L224.644 88.3311L227.054 90.3629L227.123 90.3974L227.157 90.4318L227.433 90.6728L227.984 91.1205L228.535 91.5682L228.604 91.6371L231.117 93.7722L231.462 94.0821L233.906 96.1483L246.543 106.824L246.991 107.203L264.277 121.804L268.719 125.558L270.371 126.935C271.852 128.175 274.056 128.003 275.295 126.522C275.536 126.246 275.743 125.902 275.881 125.558C276.673 124.18 276.363 122.699 275.364 121.735ZM175.645 41.9099C185.768 29.9258 203.674 28.4106 215.657 38.5351C220.615 42.702 223.99 48.453 225.229 54.8238C225.264 55.0649 225.298 55.2715 225.367 55.5126C225.505 56.3391 225.608 57.1656 225.677 57.992C225.677 58.2331 225.711 58.4397 225.711 58.6808C225.746 59.1973 225.746 59.7139 225.746 60.2305C225.746 63.3642 225.229 66.4636 224.196 69.4252C223.06 72.7311 221.304 75.8305 219.031 78.5166C218.997 78.5854 218.928 78.6199 218.893 78.6887C218.446 79.2397 217.964 79.7563 217.482 80.2384C217.309 80.4106 217.137 80.5828 216.965 80.755C216.621 81.0993 216.242 81.4093 215.898 81.7192C215.347 82.2013 214.796 82.649 214.21 83.0623C214.004 83.2 213.832 83.3377 213.625 83.4755C213.418 83.6132 213.246 83.751 213.04 83.8887C212.661 84.1642 212.248 84.4053 211.835 84.6464C211.628 84.7497 211.421 84.8874 211.215 84.9907C211.008 85.094 210.802 85.2318 210.595 85.3351C210.388 85.4384 210.182 85.5417 209.975 85.645C209.562 85.8517 209.149 86.0583 208.701 86.2305C208.494 86.3338 208.288 86.4026 208.047 86.506C207.909 86.5748 207.771 86.6093 207.634 86.6781C207.565 86.7126 207.53 86.7126 207.461 86.747C207.393 86.7815 207.324 86.8159 207.255 86.8159C207.22 86.8159 207.22 86.8503 207.186 86.8503C207.048 86.9192 206.876 86.9536 206.738 87.0225C206.532 87.0914 206.291 87.1603 206.084 87.2291C205.878 87.298 205.637 87.3669 205.43 87.4358C205.223 87.5046 204.982 87.5735 204.776 87.6079C204.569 87.6768 204.328 87.7457 204.121 87.7801C203.88 87.849 203.639 87.8834 203.398 87.9523C203.192 87.9868 202.985 88.0556 202.779 88.0901C202.572 88.1245 202.4 88.1589 202.193 88.1934C201.918 88.2278 201.642 88.2967 201.367 88.3311C201.229 88.3656 201.057 88.3656 200.919 88.4C200.85 88.4 200.781 88.4 200.747 88.4344C200.54 88.4689 200.368 88.4689 200.162 88.5033C200.127 88.5033 200.058 88.5033 200.024 88.5033C199.817 88.5377 199.611 88.5378 199.404 88.5722C198.956 88.6066 198.509 88.6066 198.061 88.6411C197.82 88.6411 197.614 88.6411 197.372 88.6411C197.131 88.6411 196.925 88.6411 196.684 88.6411H196.649C196.477 88.6411 196.339 88.6411 196.167 88.6411C196.064 88.6411 195.926 88.6411 195.823 88.6411C195.651 88.6411 195.513 88.6066 195.341 88.6066C195.306 88.6066 195.238 88.6066 195.203 88.6066C195.169 88.6066 195.169 88.6066 195.134 88.6066C194.962 88.6066 194.79 88.5722 194.618 88.5722C194.549 88.5722 194.446 88.5722 194.377 88.5378C194.136 88.5033 193.86 88.4689 193.619 88.4344C193.344 88.4 193.068 88.3656 192.758 88.2967C192.621 88.2967 192.483 88.2623 192.38 88.2278C192.207 88.1934 192.035 88.1589 191.863 88.1245C191.691 88.0901 191.519 88.0556 191.347 88.0212C191.209 87.9868 191.071 87.9523 190.933 87.9179C190.865 87.9179 190.796 87.8834 190.727 87.8834C190.348 87.8146 190.004 87.7113 189.659 87.6079C189.453 87.5391 189.212 87.4702 189.005 87.4013C188.695 87.298 188.385 87.1947 188.11 87.0914C188.007 87.057 187.869 87.0225 187.766 86.9536C187.662 86.9192 187.525 86.8848 187.421 86.8159C187.318 86.7815 187.215 86.747 187.111 86.6781C186.939 86.6093 186.767 86.5404 186.595 86.4715C186.25 86.3338 185.906 86.196 185.562 86.0238C185.355 85.9205 185.183 85.8517 184.976 85.7483C184.219 85.3695 183.496 84.9907 182.773 84.543C182.601 84.4397 182.428 84.3364 182.222 84.1987C181.981 84.0609 181.774 83.9232 181.568 83.7854C181.43 83.7166 181.327 83.6132 181.223 83.5444C181.017 83.4066 180.81 83.2344 180.569 83.0967C180.466 83.0278 180.362 82.9245 180.225 82.8556C179.846 82.5801 179.467 82.2702 179.088 81.9603C178.916 81.8225 178.744 81.6503 178.572 81.5126C178.503 81.4437 178.434 81.3748 178.365 81.306C178.296 81.2371 178.193 81.1682 178.124 81.0649C178.021 80.9616 177.883 80.8583 177.78 80.7205C177.608 80.5483 177.436 80.3762 177.263 80.204C177.091 80.0318 176.919 79.8596 176.747 79.653C176.575 79.4808 176.403 79.3086 176.23 79.102C176.058 78.9298 175.886 78.7232 175.748 78.551C175.576 78.3788 175.438 78.1722 175.301 78C174.956 77.5523 174.612 77.1391 174.302 76.657C174.164 76.4503 174.027 76.2437 173.889 76.0371C173.751 75.8305 173.613 75.6238 173.476 75.3828C173.338 75.1762 173.2 74.9351 173.062 74.7285C173.062 74.7285 173.062 74.7285 173.062 74.694C172.787 74.2464 172.546 73.8331 172.339 73.351C172.098 72.9033 171.892 72.4212 171.685 71.9735C171.582 71.7324 171.479 71.4914 171.375 71.2848C171.169 70.8026 170.996 70.355 170.824 69.8728C170.755 69.6318 170.652 69.4252 170.583 69.1841V69.1497C170.411 68.6676 170.273 68.1854 170.17 67.7033C170.17 67.7033 170.17 67.7033 170.17 67.6689C170.101 67.4278 170.032 67.1868 169.998 66.9457C169.929 66.7391 169.895 66.5324 169.86 66.3258C169.826 66.0848 169.757 65.8437 169.722 65.6026C169.688 65.4649 169.688 65.3616 169.654 65.2238C169.619 65.1205 169.619 65.0172 169.585 64.9139C169.585 64.8106 169.55 64.7073 169.55 64.604C169.516 64.3973 169.481 64.1907 169.447 63.9841C169.413 63.743 169.378 63.502 169.344 63.2265C169.309 62.9166 169.275 62.6411 169.275 62.3311C169.275 62.1245 169.24 61.9179 169.24 61.7113C169.24 61.5391 169.206 61.3324 169.206 61.1603V61.1258C169.206 61.057 169.206 60.9881 169.206 60.8848C169.206 60.6437 169.206 60.4371 169.206 60.196C169.206 59.9894 169.206 59.7828 169.206 59.5762C169.206 59.3007 169.206 59.0252 169.24 58.7152C169.24 58.6464 169.24 58.5775 169.24 58.543C169.24 58.4742 169.24 58.4053 169.24 58.3709C169.24 58.2331 169.275 58.0954 169.275 57.992C169.275 57.9576 169.275 57.9576 169.275 57.9232C169.275 57.7854 169.309 57.6132 169.309 57.4755C169.344 57.1656 169.378 56.8901 169.413 56.5801C169.447 56.4424 169.447 56.2702 169.481 56.1324C169.481 56.0291 169.516 55.9258 169.516 55.8225C169.516 55.7192 169.55 55.6159 169.585 55.5126C169.619 55.3748 169.619 55.2371 169.654 55.0993C169.654 55.0305 169.688 54.9271 169.688 54.8238C169.757 54.4795 169.826 54.1351 169.895 53.7907C169.963 53.4464 170.067 53.102 170.17 52.7576C170.273 52.4132 170.377 52.0689 170.48 51.7245C170.514 51.5523 170.583 51.3801 170.652 51.2079C170.755 50.8636 170.893 50.5192 171.031 50.1748C171.1 50.0026 171.169 49.8305 171.238 49.6583C171.375 49.3139 171.513 48.9695 171.651 48.6252C171.72 48.453 171.788 48.2808 171.892 48.1086C172.064 47.7642 172.202 47.4543 172.374 47.1099C172.546 46.7656 172.718 46.4556 172.925 46.1113C173.131 45.7669 173.304 45.457 173.51 45.147C173.613 44.9748 173.717 44.8371 173.82 44.6649C174.027 44.355 174.233 44.045 174.474 43.7351C174.646 43.1152 175.128 42.4954 175.645 41.9099ZM169.034 57.992C169.034 58.1298 168.999 58.2675 168.999 58.3709C168.999 58.2675 168.999 58.1298 169.034 57.992C169.034 57.9576 169.034 57.9576 169.034 57.9232C169.034 57.9576 169.034 57.9576 169.034 57.992ZM169.447 54.8238C169.447 54.8927 169.413 54.996 169.413 55.0993C169.413 54.996 169.447 54.8927 169.447 54.8238Z" fill="#3F3D56"/>
<path opacity="0.3" d="M179.02 81.9258C167.725 72.3867 165.625 55.7881 174.199 43.7695C173.648 44.3205 173.131 44.906 172.615 45.4914C162.491 57.4755 164.007 75.3828 175.989 85.5073C187.972 95.6318 205.878 94.1165 216.001 82.1324C216.518 81.547 217 80.9271 217.413 80.3073C207.014 90.7073 190.314 91.4649 179.02 81.9258Z" fill="black"/>
</g>
<defs>
<clipPath id="clip0_31_228">
<rect width="313" height="156" fill="white"/>
</clipPath>
</defs>
</svg>
