<svg id="Layer_1" data-name="Layer 1" xmlns="http://www.w3.org/2000/svg" viewBox="0 0 150.63 112.92"><defs><style>.cls-1{fill:#2d4297;}.cls-2{fill:#55baa6;}</style></defs><path class="cls-1" d="M202.71,99.45c.21,3.31.48,5.55.49,7.79q0,31.22,0,62.43c0,11.65-3.34,15-14.84,15q-60.44,0-120.87,0c-11.53,0-14.83-3.3-14.86-15q-.09-31.53,0-63.06c0-2,.28-4.06.5-6.94,2.95.72,5.34,1.14,7.61,1.89,20.59,6.8,41.12,13.8,61.79,20.36a18.84,18.84,0,0,0,10.73,0c20.28-6.43,40.41-13.3,60.6-20C196.39,101.14,199,100.51,202.71,99.45Z" transform="translate(-52.6 -71.75)"/><path class="cls-2" d="M127.89,71.78c20.44,0,40.89-.1,61.33,0,10.33.08,14.89,5,13.7,14.79-.26,2.11-2.41,5-4.34,5.72Q164.89,104,130.93,114.79c-2.49.79-5.78.17-8.41-.68-21-6.79-42-13.84-63-20.7-4.05-1.32-7.39-2.76-6.91-8s.94-10.7,7.16-12.51a34.56,34.56,0,0,1,9.25-1.1C88.67,71.73,108.28,71.77,127.89,71.78Z" transform="translate(-52.6 -71.75)"/></svg>